# Blender v3.1.2 OBJ File: ''
# www.blender.org
mtllib 1.mtl
o Cube_Cube.002
v 0.991975 -0.065381 0.112272
v 0.991975 0.065381 0.112272
v 0.991975 -0.065381 -0.112272
v 0.991975 0.065381 -0.112272
v -0.991975 -0.065381 0.112272
v -0.991975 0.065381 0.112272
v -0.991975 -0.065381 -0.112272
v -0.991975 0.065381 -0.112272
v 0.991975 0.065381 0.112272
v 0.991975 0.065381 -0.112272
v -0.991975 0.065381 0.112272
v -0.991975 0.065381 -0.112272
v 0.991975 0.065381 0.112272
v 0.991975 0.065381 -0.112272
v -0.991975 0.065381 0.112272
v -0.991975 0.065381 -0.112272
v 0.991975 0.081676 0.080126
v 0.991975 0.081676 -0.080126
v -0.991975 0.081676 -0.080126
v -0.991975 0.081676 0.080126
vt 0.625000 0.500000
vt 0.625000 0.750000
vt 0.875000 0.750000
vt 0.875000 0.500000
vt 0.375000 0.000000
vt 0.375000 0.250000
vt 0.625000 0.250000
vt 0.625000 0.000000
vt 0.375000 0.500000
vt 0.625000 0.500000
vt 0.375000 0.750000
vt 0.625000 0.750000
vt 0.375000 1.000000
vt 0.625000 1.000000
vt 0.125000 0.500000
vt 0.125000 0.750000
vt 0.625000 0.250000
vt 0.625000 0.000000
vt 0.625000 0.750000
vt 0.625000 1.000000
vt 0.625000 0.250000
vt 0.625000 0.500000
vt 0.625000 0.750000
vt 0.625000 1.000000
vt 0.625000 0.250000
vt 0.625000 0.500000
vt 0.625000 1.000000
vn 0.0000 1.0000 0.0000
vn 1.0000 0.0000 0.0000
vn 0.0000 0.0000 -1.0000
vn -1.0000 0.0000 0.0000
vn 0.0000 0.0000 1.0000
vn 0.0000 -1.0000 0.0000
vn 0.0000 0.8920 0.4521
vn 0.0000 0.8920 -0.4521
usemtl Material.003
s off
f 19/1/1 20/2/1 17/3/1 18/4/1
usemtl Material.004
f 1/5/2 3/6/2 4/7/2 2/8/2
f 3/6/3 7/9/3 8/10/3 4/7/3
f 7/9/4 5/11/4 6/12/4 8/10/4
f 5/11/5 1/13/5 2/14/5 6/12/5
f 3/15/6 1/16/6 5/11/6 7/9/6
f 4/7/2 18/17/2 17/18/2 2/8/2
f 6/12/5 11/19/5 9/20/5 2/14/5
f 4/7/5 10/21/5 12/22/5 8/10/5
f 11/19/5 15/23/5 13/24/5 9/20/5
f 10/21/5 14/25/5 16/26/5 12/22/5
f 2/14/7 17/27/7 20/2/7 6/12/7
f 8/10/8 19/1/8 18/17/8 4/7/8
f 6/12/4 20/2/4 19/1/4 8/10/4
